<mxfile host="Electron" modified="2024-07-30T21:31:02.348Z" agent="Mozilla/5.0 (Windows NT 10.0; Win64; x64) AppleWebKit/537.36 (KHTML, like Gecko) draw.io/24.5.3 Chrome/124.0.6367.207 Electron/30.0.6 Safari/537.36" etag="MmW-AryCrjsTbcDzuNNu" version="24.5.3" type="device">
  <diagram name="Page-1" id="ysK7YwZzjruVai9K_B8a">
    <mxGraphModel dx="989" dy="600" grid="1" gridSize="10" guides="1" tooltips="1" connect="1" arrows="1" fold="1" page="1" pageScale="1" pageWidth="850" pageHeight="1100" math="0" shadow="0">
      <root>
        <mxCell id="0" />
        <mxCell id="1" parent="0" />
        <mxCell id="DQnWD-l-PrUp4RtuBGlh-3" value="" style="edgeStyle=orthogonalEdgeStyle;rounded=0;orthogonalLoop=1;jettySize=auto;html=1;fontColor=#260000;fontStyle=1;fontSize=14;fontFamily=Times New Roman;strokeWidth=2;fillColor=none;strokeColor=#260000;" parent="1" source="DQnWD-l-PrUp4RtuBGlh-1" target="DQnWD-l-PrUp4RtuBGlh-2" edge="1">
          <mxGeometry relative="1" as="geometry" />
        </mxCell>
        <mxCell id="DQnWD-l-PrUp4RtuBGlh-1" value="Coordonateur&amp;nbsp;" style="shape=umlActor;verticalLabelPosition=bottom;verticalAlign=top;html=1;outlineConnect=0;fontStyle=1;fontSize=14;fontFamily=Times New Roman;strokeWidth=2;fillColor=none;strokeColor=#260000;fontColor=#260000;" parent="1" vertex="1">
          <mxGeometry x="80" y="80" width="40" height="80" as="geometry" />
        </mxCell>
        <mxCell id="DQnWD-l-PrUp4RtuBGlh-2" value="&lt;div style=&quot;text-align: justify; font-size: 14px;&quot;&gt;&lt;font style=&quot;font-size: 14px;&quot;&gt;&lt;font style=&quot;font-size: 14px;&quot;&gt;&lt;span style=&quot;background-color: initial; font-size: 14px;&quot;&gt;Le coordonateur consulte tous les rapprots émanant des services du complexe.&lt;/span&gt;&lt;/font&gt;&lt;/font&gt;&lt;/div&gt;&lt;p class=&quot;MsoListParagraph&quot; style=&quot;margin-left: 39.75pt; text-indent: -0.25in; line-height: 115%; font-size: 14px;&quot;&gt;&lt;span lang=&quot;FR&quot; style=&quot;font-size: 14px; line-height: 115%;&quot;&gt;&lt;/span&gt;&lt;/p&gt;" style="whiteSpace=wrap;html=1;verticalAlign=top;align=center;fontStyle=1;fontSize=14;fontFamily=Times New Roman;strokeWidth=2;fillColor=none;strokeColor=#260000;fontColor=#260000;" parent="1" vertex="1">
          <mxGeometry x="350" y="90" width="380" height="60" as="geometry" />
        </mxCell>
        <mxCell id="DQnWD-l-PrUp4RtuBGlh-6" value="" style="edgeStyle=orthogonalEdgeStyle;rounded=0;orthogonalLoop=1;jettySize=auto;html=1;fontColor=#260000;fontStyle=1;fontSize=14;fontFamily=Times New Roman;strokeWidth=2;fillColor=none;strokeColor=#260000;" parent="1" source="DQnWD-l-PrUp4RtuBGlh-4" target="DQnWD-l-PrUp4RtuBGlh-5" edge="1">
          <mxGeometry relative="1" as="geometry" />
        </mxCell>
        <mxCell id="DQnWD-l-PrUp4RtuBGlh-4" value="Directeur des etudes" style="shape=umlActor;verticalLabelPosition=bottom;verticalAlign=top;html=1;outlineConnect=0;fontStyle=1;fontSize=14;fontFamily=Times New Roman;strokeWidth=2;fillColor=none;strokeColor=#260000;fontColor=#260000;" parent="1" vertex="1">
          <mxGeometry x="80" y="200" width="40" height="80" as="geometry" />
        </mxCell>
        <mxCell id="DQnWD-l-PrUp4RtuBGlh-5" value="&lt;div style=&quot;text-align: justify; font-size: 14px;&quot;&gt;&lt;font style=&quot;font-size: 14px;&quot;&gt;&lt;span style=&quot;background-color: initial; font-size: 14px;&quot;&gt;Ce dernier s&#39;occupe de&amp;nbsp;&lt;/span&gt;&lt;span lang=&quot;FR&quot; style=&quot;background-color: initial; line-height: 107%; font-size: 14px;&quot;&gt;&lt;font style=&quot;font-size: 14px;&quot;&gt;&lt;font style=&quot;font-size: 14px;&quot;&gt;l’inscription des nouveaux élèves et la &lt;/font&gt;&lt;font style=&quot;font-size: 14px;&quot;&gt;réinscription des anciens élèves,&amp;nbsp;&lt;/font&gt;&lt;/font&gt;&lt;/span&gt;&lt;/font&gt;&lt;span style=&quot;background-color: initial; text-align: center; font-size: 14px;&quot;&gt;&lt;font style=&quot;font-size: 14px;&quot;&gt;la gestion des cours par filière, il enregistre les enseignants, les clesses, les cours, les filieres.&lt;/font&gt;&lt;/span&gt;&lt;/div&gt;" style="whiteSpace=wrap;html=1;verticalAlign=top;fontStyle=1;fontSize=14;fontFamily=Times New Roman;strokeWidth=2;fillColor=none;strokeColor=#260000;fontColor=#260000;" parent="1" vertex="1">
          <mxGeometry x="350" y="205" width="380" height="70" as="geometry" />
        </mxCell>
        <mxCell id="DQnWD-l-PrUp4RtuBGlh-11" value="" style="edgeStyle=orthogonalEdgeStyle;rounded=0;orthogonalLoop=1;jettySize=auto;html=1;fontColor=#260000;fontStyle=1;fontSize=14;fontFamily=Times New Roman;strokeWidth=2;fillColor=none;strokeColor=#260000;" parent="1" source="DQnWD-l-PrUp4RtuBGlh-9" target="DQnWD-l-PrUp4RtuBGlh-10" edge="1">
          <mxGeometry relative="1" as="geometry" />
        </mxCell>
        <mxCell id="DQnWD-l-PrUp4RtuBGlh-9" value="Comptable" style="shape=umlActor;verticalLabelPosition=bottom;verticalAlign=top;html=1;outlineConnect=0;fontStyle=1;fontSize=14;fontFamily=Times New Roman;strokeWidth=2;fillColor=none;strokeColor=#260000;fontColor=#260000;" parent="1" vertex="1">
          <mxGeometry x="80" y="322" width="40" height="80" as="geometry" />
        </mxCell>
        <mxCell id="DQnWD-l-PrUp4RtuBGlh-10" value="&lt;div style=&quot;text-align: justify; font-size: 14px;&quot;&gt;&lt;span style=&quot;background-color: initial; font-size: 14px;&quot;&gt;Le comptable s&#39;occupe des transactions fincancières du complexe et enregistre les differents frais.&lt;/span&gt;&lt;/div&gt;&lt;div style=&quot;text-align: justify; font-size: 14px;&quot;&gt;&lt;br style=&quot;font-size: 14px;&quot;&gt;&lt;/div&gt;&lt;div style=&quot;text-align: justify; font-size: 14px;&quot;&gt;&lt;br style=&quot;font-size: 14px;&quot;&gt;&lt;/div&gt;" style="whiteSpace=wrap;html=1;verticalAlign=top;fontFamily=Times New Roman;fontStyle=1;fontSize=14;strokeWidth=2;fillColor=none;strokeColor=#260000;fontColor=#260000;" parent="1" vertex="1">
          <mxGeometry x="350" y="338" width="380" height="48" as="geometry" />
        </mxCell>
        <mxCell id="DQnWD-l-PrUp4RtuBGlh-13" value="Enseigant" style="shape=umlActor;verticalLabelPosition=bottom;verticalAlign=top;html=1;outlineConnect=0;fontStyle=1;fontSize=14;fontFamily=Times New Roman;strokeWidth=2;fillColor=none;strokeColor=#260000;fontColor=#260000;" parent="1" vertex="1">
          <mxGeometry x="80" y="461" width="35" height="70" as="geometry" />
        </mxCell>
        <mxCell id="DQnWD-l-PrUp4RtuBGlh-14" value="&lt;div style=&quot;text-align: justify; font-size: 14px;&quot;&gt;&lt;font style=&quot;background-color: initial;&quot;&gt;&amp;nbsp;&lt;/font&gt;&lt;span style=&quot;background-color: initial;&quot;&gt;L&#39;enseignant évalue l&#39;élève inscrit, publie&amp;nbsp;&lt;/span&gt;&lt;span style=&quot;background-color: initial; text-align: center;&quot;&gt;en ligne des dévoirs quotidiens.&lt;/span&gt;&lt;font style=&quot;background-color: initial;&quot;&gt;&amp;nbsp;&lt;/font&gt;&lt;font style=&quot;background-color: initial;&quot;&gt;&amp;nbsp;&lt;/font&gt;&lt;br&gt;&lt;/div&gt;&lt;div style=&quot;text-align: justify; font-size: 14px;&quot;&gt;&lt;font style=&quot;font-size: 14px;&quot;&gt;&lt;br style=&quot;font-size: 14px;&quot;&gt;&lt;/font&gt;&lt;/div&gt;&lt;div style=&quot;text-align: justify; font-size: 14px;&quot;&gt;&lt;br style=&quot;font-size: 14px;&quot;&gt;&lt;/div&gt;" style="whiteSpace=wrap;html=1;verticalAlign=top;fontStyle=1;fontSize=14;fontFamily=Times New Roman;strokeWidth=2;fillColor=none;strokeColor=#260000;fontColor=#260000;" parent="1" vertex="1">
          <mxGeometry x="350" y="471" width="380" height="50" as="geometry" />
        </mxCell>
        <mxCell id="DQnWD-l-PrUp4RtuBGlh-20" value="" style="edgeStyle=orthogonalEdgeStyle;rounded=0;orthogonalLoop=1;jettySize=auto;html=1;fontColor=#260000;fontStyle=1;fontSize=14;fontFamily=Times New Roman;strokeWidth=2;fillColor=none;strokeColor=#260000;" parent="1" source="DQnWD-l-PrUp4RtuBGlh-16" target="DQnWD-l-PrUp4RtuBGlh-19" edge="1">
          <mxGeometry relative="1" as="geometry" />
        </mxCell>
        <mxCell id="DQnWD-l-PrUp4RtuBGlh-16" value="Eleve" style="shape=umlActor;verticalLabelPosition=bottom;verticalAlign=top;html=1;outlineConnect=0;fontStyle=1;fontSize=14;fontFamily=Times New Roman;strokeWidth=2;fillColor=none;strokeColor=#260000;fontColor=#260000;" parent="1" vertex="1">
          <mxGeometry x="80" y="580" width="37.5" height="80" as="geometry" />
        </mxCell>
        <mxCell id="DQnWD-l-PrUp4RtuBGlh-19" value="&lt;div style=&quot;text-align: justify; font-size: 14px;&quot;&gt;&lt;span style=&quot;background-color: initial; font-size: 14px;&quot;&gt;&lt;font style=&quot;font-size: 14px;&quot;&gt;Consulte les dévoirs, conslute et imprime ses côtes&amp;nbsp;&lt;/font&gt;&lt;/span&gt;&lt;/div&gt;" style="whiteSpace=wrap;html=1;verticalAlign=top;fontStyle=1;fontSize=14;fontFamily=Times New Roman;strokeWidth=2;fillColor=none;strokeColor=#260000;fontColor=#260000;" parent="1" vertex="1">
          <mxGeometry x="347.5" y="600" width="380" height="40" as="geometry" />
        </mxCell>
        <mxCell id="urRKKmRZj1warrlnzHka-1" value="" style="endArrow=classic;html=1;rounded=0;entryX=0;entryY=0.5;entryDx=0;entryDy=0;strokeWidth=2;fillColor=none;strokeColor=#260000;fontColor=#260000;fontFamily=Times New Roman;" parent="1" source="DQnWD-l-PrUp4RtuBGlh-13" target="DQnWD-l-PrUp4RtuBGlh-14" edge="1">
          <mxGeometry width="50" height="50" relative="1" as="geometry">
            <mxPoint x="120" y="500" as="sourcePoint" />
            <mxPoint x="340" y="500" as="targetPoint" />
          </mxGeometry>
        </mxCell>
      </root>
    </mxGraphModel>
  </diagram>
</mxfile>
